<?xml version="1.0" ?><svg id="border" viewBox="0 0 48 48" xmlns="http://www.w3.org/2000/svg" xmlns:xlink="http://www.w3.org/1999/xlink"><defs><style>.cls-1,.cls-4,.cls-8{fill:none;}.cls-2{fill:#093;}.cls-2,.cls-3,.cls-4{stroke:#000;}.cls-2,.cls-3,.cls-4,.cls-5,.cls-6,.cls-7,.cls-8{stroke-miterlimit:10;}.cls-3{fill:#fc0;stroke-width:0.1px;}.cls-4,.cls-5,.cls-6,.cls-7,.cls-8{stroke-linecap:round;}.cls-5,.cls-7{fill:#ad9d4d;fill-rule:evenodd;}.cls-5,.cls-6,.cls-7,.cls-8{stroke:#1d1d1b;}.cls-6{fill:url(#Degradado_sin_nombre_6);}.cls-7,.cls-8{stroke-width:0.25px;}</style><radialGradient cx="30" cy="30" gradientUnits="userSpaceOnUse" id="Degradado_sin_nombre_6" r="11"><stop offset="0.88" stop-color="#fff"/><stop offset="1"/></radialGradient><symbol data-name="material_system_icon_border" id="material_system_icon_border" viewBox="0 0 48 48"><rect class="cls-1" height="48" width="48"/></symbol></defs><title/><use data-name="material_system_icon_border" height="48" id="material_system_icon_border-3" width="48" xlink:href="#material_system_icon_border"/><rect class="cls-2" height="27" width="35" x="4.5" y="4.5"/><path class="cls-3" d="M12,23.44l0-4h2.77l0-3H9.16a1.4,1.4,0,0,1-1.39,1,1.48,1.48,0,0,1,0-3,1.32,1.32,0,0,1,1.39,1h5.62v-3H9.16a1.4,1.4,0,0,1-1.39,1,1.48,1.48,0,0,1,0-3,1.32,1.32,0,0,1,1.39,1h5.59l0-3H9.16a1.4,1.4,0,0,1-1.39,1,1.48,1.48,0,0,1,0-3,1.32,1.32,0,0,1,1.39,1H16v8.7l5,0.06V8.58a1.4,1.4,0,0,1-1-1.39,1.48,1.48,0,0,1,3,0,1.32,1.32,0,0,1-1,1.39V16.2h4V9.58a1.4,1.4,0,0,1-1-1.39,1.48,1.48,0,0,1,3,0,1.32,1.32,0,0,1-1,1.39V16.2h3V8.58a1.4,1.4,0,0,1-1-1.39,1.48,1.48,0,0,1,3,0,1.32,1.32,0,0,1-1,1.39v1l5,0h1v2.76a1.4,1.4,0,0,1,1,1.39,1.48,1.48,0,1,1-3,0,1.32,1.32,0,0,1,1-1.39V10.59l-5,.08V17.2H16v2.24h0.92a1.4,1.4,0,0,1,1.39-1,1.48,1.48,0,1,1,0,3,1.32,1.32,0,0,1-1.39-1H13v3h2.92a1.4,1.4,0,0,1,1.39-1,1.48,1.48,0,1,1,0,3,1.32,1.32,0,0,1-1.39-1H13v4H9.16a1.4,1.4,0,0,1-1.39,1,1.48,1.48,0,0,1,0-3,1.32,1.32,0,0,1,1.39,1H12v-3H9.16a1.4,1.4,0,0,1-1.39,1,1.48,1.48,0,0,1,0-3,1.32,1.32,0,0,1,1.39,1H12"/><rect class="cls-4" height="28" id="base" rx="1" ry="1" width="36" x="4" y="4"/><path class="cls-5" d="M30,16A14,14,0,1,1,16,30,14,14,0,0,1,30,16ZM41,30A11,11,0,1,0,30,41,11,11,0,0,0,41,30Z"/><path class="cls-6" d="M30,19A11,11,0,1,1,19,30,11,11,0,0,1,30,19Z"/><g id="feathercoin"><path class="cls-7" d="M34.45,24A64.11,64.11,0,0,0,29.37,32C30,31.56,35.73,22.55,34.45,24ZM29.36,36.58c-1.75-.58-1.18,0-1.48-1a12.83,12.83,0,0,1-1.72,2.92S26.49,37,26.49,37s0.94-.8.41-1.3-1.19.66-1.19,0.66a1.9,1.9,0,0,1,.74-1.41,0,0,0,0,0,0-.08L24,33.63c-0.34-.51,2.48.39,2.9,1s-1.66-2.88-1.66-2.88,2.23,2.75,2.15,2.52a5.17,5.17,0,0,1-.62-2.81s1.4,2,1.65,1.67-1-3.56-1-3.56l0.34-.39s0.91,2.68,1.18,2.16c0.47-.9-0.34-3.2-0.34-3.2l0.78-.9s0.71,1.79.8,1.11A7.42,7.42,0,0,0,30,26.41l4.68-4.91c3.48,1.68-.9,7.82-0.85,7.44,0,0-1.72.07-1.9,0.66s1.48,0.49,1.48.49l-1.4,3.12s-3.47-.2-3.42.64c0,0,5.14.39,4.24,0.51-2.5.37-4.56,0-4.41,0.17,0.81,0.94,5.09.94,2.54,1.28s-2.71-1.26-2.8-.7C28.1,35.86,30.68,37,29.36,36.58Z"/><path class="cls-8" d="M34.45,24c1.28-1.5-4.49,7.51-5.08,7.94A64.11,64.11,0,0,1,34.45,24Z"/><path class="cls-8" d="M29.36,32h0"/></g></svg>